# xmcd CD database file
#
# Track frame offsets:
#	180
#	46105
#	84246
#	111077
#	147023
#	188773
#
# Disc length: 2906 seconds
#
# Revision: 0
# Processed by: cddbd v1.5.2PL0 Copyright (c) Steve Scherf et al.
# Submitted via: CDex 1.70beta2
#
DISCID=400b5806
DTITLE=Kessler Siegfried, Yochk'O Seffer - Ellington
DYEAR=1999
DGENRE=Jazz
TTITLE0=Prelude to a kiss
TTITLE1=Lush Life
TTITLE2=Caravan
TTITLE3=In a sentimental mood
TTITLE4=Sophisticated lady
TTITLE5=La ruche
EXTD=YEAR: 1999
EXTT0=
EXTT1=
EXTT2=
EXTT3=
EXTT4=
EXTT5=
PLAYORDER=
